<svg width="65" height="65" viewBox="0 0 65 65" fill="none" xmlns="http://www.w3.org/2000/svg">
<circle cx="32.5" cy="32.5" r="32.5" fill="#5E4635"/>
<g clip-path="url(#clip0_20_3)">
<path d="M40.5 30.25H33.75V29.4062C34.3937 29.239 34.9638 28.863 35.371 28.3371C35.7782 27.8112 35.9994 27.1651 36 26.5C36 23.875 33.5212 22.1959 33.4163 22.1256C33.293 22.0434 33.1482 21.9995 33 21.9995C32.8518 21.9995 32.707 22.0434 32.5837 22.1256C32.4788 22.1959 30 23.875 30 26.5C30.0006 27.1651 30.2218 27.8112 30.629 28.3371C31.0362 28.863 31.6063 29.239 32.25 29.4062V30.25H25.5C24.9033 30.25 24.331 30.4871 23.909 30.909C23.4871 31.331 23.25 31.9033 23.25 32.5V34.6872C23.2508 35.5054 23.5136 36.3018 24 36.9597V40.75C24 41.3467 24.2371 41.919 24.659 42.341C25.081 42.7629 25.6533 43 26.25 43H39.75C40.3467 43 40.919 42.7629 41.341 42.341C41.7629 41.919 42 41.3467 42 40.75V36.9597C42.4864 36.3018 42.7492 35.5054 42.75 34.6872V32.5C42.75 31.9033 42.5129 31.331 42.091 30.909C41.669 30.4871 41.0967 30.25 40.5 30.25ZM31.5 26.5C31.5 25.2278 32.4375 24.2069 33 23.7072C33.5625 24.2069 34.5 25.2278 34.5 26.5C34.5 26.8978 34.342 27.2794 34.0607 27.5607C33.7794 27.842 33.3978 28 33 28C32.6022 28 32.2206 27.842 31.9393 27.5607C31.658 27.2794 31.5 26.8978 31.5 26.5ZM41.25 34.6872C41.25 35.9294 40.2694 36.9663 39.0637 36.9991C38.763 37.0076 38.4637 36.9557 38.1833 36.8465C37.903 36.7373 37.6474 36.573 37.4317 36.3633C37.216 36.1537 37.0445 35.9028 36.9274 35.6257C36.8103 35.3486 36.75 35.0508 36.75 34.75C36.75 34.5511 36.671 34.3603 36.5303 34.2197C36.3897 34.079 36.1989 34 36 34C35.8011 34 35.6103 34.079 35.4697 34.2197C35.329 34.3603 35.25 34.5511 35.25 34.75C35.25 35.3467 35.0129 35.919 34.591 36.341C34.169 36.7629 33.5967 37 33 37C32.4033 37 31.831 36.7629 31.409 36.341C30.9871 35.919 30.75 35.3467 30.75 34.75C30.75 34.5511 30.671 34.3603 30.5303 34.2197C30.3897 34.079 30.1989 34 30 34C29.8011 34 29.6103 34.079 29.4697 34.2197C29.329 34.3603 29.25 34.5511 29.25 34.75C29.2501 35.0509 29.1899 35.3488 29.0728 35.626C28.9558 35.9032 28.7843 36.1542 28.5686 36.364C28.3529 36.5737 28.0973 36.7381 27.8169 36.8474C27.5365 36.9566 27.237 37.0085 26.9362 37C25.7306 36.9662 24.75 35.9294 24.75 34.6872V32.5C24.75 32.3011 24.829 32.1103 24.9697 31.9697C25.1103 31.829 25.3011 31.75 25.5 31.75H40.5C40.6989 31.75 40.8897 31.829 41.0303 31.9697C41.171 32.1103 41.25 32.3011 41.25 32.5V34.6872Z" fill="#F0E9E2"/>
</g>
<defs>
<clipPath id="clip0_20_3">
<rect width="24" height="24" fill="white" transform="translate(21 22)"/>
</clipPath>
</defs>
</svg>
